<?xml version="1.0" encoding="UTF-8"?>
<!--Generator: Apple Native CoreSVG 149-->
<!DOCTYPE svg
PUBLIC "-//W3C//DTD SVG 1.1//EN"
       "http://www.w3.org/Graphics/SVG/1.1/DTD/svg11.dtd">
<svg version="1.1" xmlns="http://www.w3.org/2000/svg" xmlns:xlink="http://www.w3.org/1999/xlink" width="3300" height="2200">
 <!--glyph: "uni10065F.medium", point size: 100.000000, font version: "Version 16.0d18e1", template writer version: "8"-->
 <g id="Notes">
  <rect height="2200" id="artboard" style="fill:white;opacity:1" width="3300" x="0" y="0"/>
  <line id="" style="fill:none;stroke:black;opacity:1;stroke-width:0.5;" x1="263" x2="3036" y1="292" y2="292"/>
  <text style="stroke:none;fill:black;font-family:-apple-system,&quot;SF Pro Display&quot;,&quot;SF Pro Text&quot;,Helvetica,sans-serif;font-weight:bold;" transform="matrix(1 0 0 1 263 322)">Weight/Scale Variations</text>
  <text style="stroke:none;fill:black;font-family:-apple-system,&quot;SF Pro Display&quot;,&quot;SF Pro Text&quot;,Helvetica,sans-serif;text-anchor:middle;" transform="matrix(1 0 0 1 559.711 322)">Ultralight</text>
  <text style="stroke:none;fill:black;font-family:-apple-system,&quot;SF Pro Display&quot;,&quot;SF Pro Text&quot;,Helvetica,sans-serif;text-anchor:middle;" transform="matrix(1 0 0 1 856.422 322)">Thin</text>
  <text style="stroke:none;fill:black;font-family:-apple-system,&quot;SF Pro Display&quot;,&quot;SF Pro Text&quot;,Helvetica,sans-serif;text-anchor:middle;" transform="matrix(1 0 0 1 1153.13 322)">Light</text>
  <text style="stroke:none;fill:black;font-family:-apple-system,&quot;SF Pro Display&quot;,&quot;SF Pro Text&quot;,Helvetica,sans-serif;text-anchor:middle;" transform="matrix(1 0 0 1 1449.84 322)">Regular</text>
  <text style="stroke:none;fill:black;font-family:-apple-system,&quot;SF Pro Display&quot;,&quot;SF Pro Text&quot;,Helvetica,sans-serif;text-anchor:middle;" transform="matrix(1 0 0 1 1746.56 322)">Medium</text>
  <text style="stroke:none;fill:black;font-family:-apple-system,&quot;SF Pro Display&quot;,&quot;SF Pro Text&quot;,Helvetica,sans-serif;text-anchor:middle;" transform="matrix(1 0 0 1 2043.27 322)">Semibold</text>
  <text style="stroke:none;fill:black;font-family:-apple-system,&quot;SF Pro Display&quot;,&quot;SF Pro Text&quot;,Helvetica,sans-serif;text-anchor:middle;" transform="matrix(1 0 0 1 2339.98 322)">Bold</text>
  <text style="stroke:none;fill:black;font-family:-apple-system,&quot;SF Pro Display&quot;,&quot;SF Pro Text&quot;,Helvetica,sans-serif;text-anchor:middle;" transform="matrix(1 0 0 1 2636.69 322)">Heavy</text>
  <text style="stroke:none;fill:black;font-family:-apple-system,&quot;SF Pro Display&quot;,&quot;SF Pro Text&quot;,Helvetica,sans-serif;text-anchor:middle;" transform="matrix(1 0 0 1 2933.4 322)">Black</text>
  <line id="" style="fill:none;stroke:black;opacity:1;stroke-width:0.5;" x1="263" x2="3036" y1="1903" y2="1903"/>
  <g id="" transform="matrix(1 0 0 1 263 1933)">
   <path d="M9.24805 0.830078C13.5547 0.830078 17.1387-2.74414 17.1387-7.05078C17.1387-11.3574 13.5449-14.9316 9.23828-14.9316C4.94141-14.9316 1.36719-11.3574 1.36719-7.05078C1.36719-2.74414 4.95117 0.830078 9.24805 0.830078ZM9.24805-0.654297C5.70312-0.654297 2.87109-3.49609 2.87109-7.05078C2.87109-10.6055 5.69336-13.4473 9.23828-13.4473C12.793-13.4473 15.6348-10.6055 15.6445-7.05078C15.6543-3.49609 12.8027-0.654297 9.24805-0.654297ZM6.39648-6.31836L8.50586-6.31836L8.50586-4.19922C8.50586-3.75977 8.79883-3.45703 9.22852-3.45703C9.67773-3.45703 9.9707-3.75977 9.9707-4.19922L9.9707-6.31836L12.0996-6.31836C12.5391-6.31836 12.8418-6.61133 12.8418-7.04102C12.8418-7.48047 12.5391-7.7832 12.0996-7.7832L9.9707-7.7832L9.9707-9.89258C9.9707-10.3418 9.67773-10.6445 9.22852-10.6445C8.79883-10.6445 8.50586-10.3418 8.50586-9.89258L8.50586-7.7832L6.39648-7.7832C5.94727-7.7832 5.64453-7.48047 5.64453-7.04102C5.64453-6.61133 5.94727-6.31836 6.39648-6.31836Z"/>
  </g>
  <g id="" transform="matrix(1 0 0 1 281.506 1933)">
   <path d="M11.709 2.91016C17.1582 2.91016 21.6699-1.61133 21.6699-7.05078C21.6699-12.5 17.1484-17.0117 11.6992-17.0117C6.25977-17.0117 1.74805-12.5 1.74805-7.05078C1.74805-1.61133 6.26953 2.91016 11.709 2.91016ZM11.709 1.25C7.09961 1.25 3.41797-2.44141 3.41797-7.05078C3.41797-11.6602 7.08984-15.3516 11.6992-15.3516C16.3086-15.3516 20-11.6602 20.0098-7.05078C20.0195-2.44141 16.3184 1.25 11.709 1.25ZM7.98828-6.23047L10.8789-6.23047L10.8789-3.32031C10.8789-2.83203 11.2109-2.5 11.6895-2.5C12.1777-2.5 12.5195-2.83203 12.5195-3.32031L12.5195-6.23047L15.4297-6.23047C15.918-6.23047 16.25-6.5625 16.25-7.04102C16.25-7.5293 15.918-7.87109 15.4297-7.87109L12.5195-7.87109L12.5195-10.7617C12.5195-11.2695 12.1777-11.6016 11.6895-11.6016C11.2109-11.6016 10.8789-11.2598 10.8789-10.7617L10.8789-7.87109L7.98828-7.87109C7.48047-7.87109 7.14844-7.5293 7.14844-7.04102C7.14844-6.5625 7.49023-6.23047 7.98828-6.23047Z"/>
  </g>
  <g id="" transform="matrix(1 0 0 1 304.924 1933)">
   <path d="M14.9707 5.66406C21.9336 5.66406 27.6953-0.0976562 27.6953-7.05078C27.6953-14.0137 21.9238-19.7754 14.9609-19.7754C8.00781-19.7754 2.25586-14.0137 2.25586-7.05078C2.25586-0.0976562 8.01758 5.66406 14.9707 5.66406ZM14.9707 3.84766C8.93555 3.84766 4.08203-1.01562 4.08203-7.05078C4.08203-13.0957 8.92578-17.9492 14.9609-17.9492C21.0059-17.9492 25.8594-13.0957 25.8691-7.05078C25.8789-1.01562 21.0156 3.84766 14.9707 3.84766ZM10.0586-6.14258L14.0625-6.14258L14.0625-2.12891C14.0625-1.5918 14.4336-1.2207 14.9512-1.2207C15.4883-1.2207 15.8594-1.5918 15.8594-2.12891L15.8594-6.14258L19.8828-6.14258C20.4102-6.14258 20.791-6.51367 20.791-7.03125C20.791-7.56836 20.4199-7.94922 19.8828-7.94922L15.8594-7.94922L15.8594-11.9531C15.8594-12.5098 15.4883-12.8809 14.9512-12.8809C14.4336-12.8809 14.0625-12.5 14.0625-11.9531L14.0625-7.94922L10.0586-7.94922C9.50195-7.94922 9.13086-7.56836 9.13086-7.03125C9.13086-6.51367 9.51172-6.14258 10.0586-6.14258Z"/>
  </g>
  <text style="stroke:none;fill:black;font-family:-apple-system,&quot;SF Pro Display&quot;,&quot;SF Pro Text&quot;,Helvetica,sans-serif;font-weight:bold;" transform="matrix(1 0 0 1 263 1953)">Design Variations</text>
  <text style="stroke:none;fill:black;font-family:-apple-system,&quot;SF Pro Display&quot;,&quot;SF Pro Text&quot;,Helvetica,sans-serif;" transform="matrix(1 0 0 1 263 1971)">Symbols are supported in up to nine weights and three scales.</text>
  <text style="stroke:none;fill:black;font-family:-apple-system,&quot;SF Pro Display&quot;,&quot;SF Pro Text&quot;,Helvetica,sans-serif;" transform="matrix(1 0 0 1 263 1989)">For optimal layout with text and other symbols, vertically align</text>
  <text style="stroke:none;fill:black;font-family:-apple-system,&quot;SF Pro Display&quot;,&quot;SF Pro Text&quot;,Helvetica,sans-serif;" transform="matrix(1 0 0 1 263 2007)">symbols with the adjacent text.</text>
  <line id="" style="fill:none;stroke:#00AEEF;stroke-width:0.5;opacity:1.0;" x1="776" x2="776" y1="1919" y2="1933"/>
  <g id="" transform="matrix(1 0 0 1 776 1933)">
   <path d="M3.31055 0.126953C3.82812 0.126953 4.08203-0.0683594 4.26758-0.605469L5.52734-4.0625L11.2891-4.0625L12.5488-0.605469C12.7344-0.0683594 12.9883 0.126953 13.4961 0.126953C14.0137 0.126953 14.3457-0.185547 14.3457-0.673828C14.3457-0.839844 14.3164-0.986328 14.2383-1.20117L9.6582-13.3887C9.43359-13.9941 9.0332-14.2871 8.4082-14.2871C7.80273-14.2871 7.39258-13.9941 7.17773-13.3984L2.59766-1.19141C2.51953-0.976562 2.49023-0.830078 2.49023-0.664062C2.49023-0.175781 2.80273 0.126953 3.31055 0.126953ZM6.00586-5.53711L8.37891-12.1094L8.42773-12.1094L10.8008-5.53711Z"/>
  </g>
  <line id="" style="fill:none;stroke:#00AEEF;stroke-width:0.5;opacity:1.0;" x1="792.836" x2="792.836" y1="1919" y2="1933"/>
  <text style="stroke:none;fill:black;font-family:-apple-system,&quot;SF Pro Display&quot;,&quot;SF Pro Text&quot;,Helvetica,sans-serif;font-weight:bold;" transform="matrix(1 0 0 1 776 1953)">Margins</text>
  <text style="stroke:none;fill:black;font-family:-apple-system,&quot;SF Pro Display&quot;,&quot;SF Pro Text&quot;,Helvetica,sans-serif;" transform="matrix(1 0 0 1 776 1971)">Leading and trailing margins on the left and right side of each symbol</text>
  <text style="stroke:none;fill:black;font-family:-apple-system,&quot;SF Pro Display&quot;,&quot;SF Pro Text&quot;,Helvetica,sans-serif;" transform="matrix(1 0 0 1 776 1989)">can be adjusted by modifying the x-location of the margin guidelines.</text>
  <text style="stroke:none;fill:black;font-family:-apple-system,&quot;SF Pro Display&quot;,&quot;SF Pro Text&quot;,Helvetica,sans-serif;" transform="matrix(1 0 0 1 776 2007)">Modifications are automatically applied proportionally to all</text>
  <text style="stroke:none;fill:black;font-family:-apple-system,&quot;SF Pro Display&quot;,&quot;SF Pro Text&quot;,Helvetica,sans-serif;" transform="matrix(1 0 0 1 776 2025)">scales and weights.</text>
  <g id="" transform="matrix(1 0 0 1 1289 1933)">
   <path d="M2.8418 1.86523L4.54102 3.57422C5.40039 4.44336 6.38672 4.38477 7.31445 3.35938L17.4902-7.85156C17.7539-7.76367 18.0273-7.7832 18.3398-7.8418L19.4043-8.03711L20.0684-7.36328L20.0293-6.80664C19.9902-6.30859 20.1172-5.92773 20.6055-5.44922L21.3672-4.70703C21.8457-4.22852 22.4609-4.19922 22.9297-4.66797L25.8398-7.58789C26.3086-8.05664 26.2891-8.65234 25.8105-9.13086L25.0391-9.89258C24.5605-10.3711 24.1895-10.5273 23.7109-10.4883L23.1348-10.4395L22.4902-11.0742L22.7344-12.1973C22.8613-12.7637 22.7051-13.2031 22.1191-13.7891L19.9219-15.9766C16.582-19.2969 12.1484-19.2188 9.25781-16.3281C8.83789-15.918 8.80859-15.3418 9.04297-14.9512C9.27734-14.5898 9.73633-14.3555 10.3809-14.5215C11.8457-14.8633 13.3691-14.9219 14.7949-13.9844L14.209-12.5293C14.0137-12.0508 13.9844-11.6504 14.1113-11.2891L3.04688-0.898438C2.06055 0.0195312 1.98242 0.996094 2.8418 1.86523ZM10.752-15.957C13.1836-17.7344 16.4746-17.4316 18.7012-15.2051L21.1328-12.793C21.3672-12.5586 21.4062-12.373 21.3379-12.0312L21.0156-10.5469L22.5195-9.0625L23.5059-9.12109C23.7598-9.13086 23.8379-9.11133 24.0332-8.91602L24.6094-8.33984L22.168-5.89844L21.5918-6.47461C21.3965-6.66992 21.3672-6.74805 21.377-7.01172L21.4453-7.98828L19.9512-9.47266L18.4277-9.21875C18.1055-9.15039 17.959-9.17969 17.7148-9.41406L15.7129-11.416C15.459-11.6504 15.4297-11.8164 15.5859-12.1875L16.4648-14.2773C14.9023-15.7324 12.8711-16.3574 10.8398-15.7617C10.6836-15.7227 10.625-15.8496 10.752-15.957ZM5.27344 2.30469L4.10156 1.14258C3.63281 0.683594 3.74023 0.341797 4.14062-0.0195312L14.9512-10.1953L16.416-8.71094L6.42578 2.27539C6.07422 2.67578 5.74219 2.77344 5.27344 2.30469Z"/>
  </g>
  <text style="stroke:none;fill:black;font-family:-apple-system,&quot;SF Pro Display&quot;,&quot;SF Pro Text&quot;,Helvetica,sans-serif;font-weight:bold;" transform="matrix(1 0 0 1 1289 1953)">Exporting</text>
  <text style="stroke:none;fill:black;font-family:-apple-system,&quot;SF Pro Display&quot;,&quot;SF Pro Text&quot;,Helvetica,sans-serif;" transform="matrix(1 0 0 1 1289 1971)">Symbols should be outlined when exporting to ensure the</text>
  <text style="stroke:none;fill:black;font-family:-apple-system,&quot;SF Pro Display&quot;,&quot;SF Pro Text&quot;,Helvetica,sans-serif;" transform="matrix(1 0 0 1 1289 1989)">design is preserved when submitting to Xcode.</text>
  <text id="template-version" style="stroke:none;fill:black;font-family:-apple-system,&quot;SF Pro Display&quot;,&quot;SF Pro Text&quot;,Helvetica,sans-serif;text-anchor:end;" transform="matrix(1 0 0 1 3036 1933)">Template v.2.0</text>
  <text style="stroke:none;fill:black;font-family:-apple-system,&quot;SF Pro Display&quot;,&quot;SF Pro Text&quot;,Helvetica,sans-serif;text-anchor:end;" transform="matrix(1 0 0 1 3036 1951)">Requires Xcode 12 or greater</text>
  <text style="stroke:none;fill:black;font-family:-apple-system,&quot;SF Pro Display&quot;,&quot;SF Pro Text&quot;,Helvetica,sans-serif;text-anchor:end;" transform="matrix(1 0 0 1 3036 1969)">Generated from arrow.triangle.turn.up.right.diamond.fill</text>
  <text style="stroke:none;fill:black;font-family:-apple-system,&quot;SF Pro Display&quot;,&quot;SF Pro Text&quot;,Helvetica,sans-serif;text-anchor:end;" transform="matrix(1 0 0 1 3036 1987)">Typeset at 100 points</text>
  <text style="stroke:none;fill:black;font-family:-apple-system,&quot;SF Pro Display&quot;,&quot;SF Pro Text&quot;,Helvetica,sans-serif;" transform="matrix(1 0 0 1 263 726)">Small</text>
  <text style="stroke:none;fill:black;font-family:-apple-system,&quot;SF Pro Display&quot;,&quot;SF Pro Text&quot;,Helvetica,sans-serif;" transform="matrix(1 0 0 1 263 1156)">Medium</text>
  <text style="stroke:none;fill:black;font-family:-apple-system,&quot;SF Pro Display&quot;,&quot;SF Pro Text&quot;,Helvetica,sans-serif;" transform="matrix(1 0 0 1 263 1586)">Large</text>
 </g>
 <g id="Guides">
  <g id="H-reference" style="fill:#27AAE1;stroke:none;" transform="matrix(1 0 0 1 339 696)">
   <path d="M0.976562 0L3.66211 0L12.9883-24.4629L45.752-24.4629L55.127 0L57.7637 0L30.6152-70.459L28.125-70.459ZM29.3457-67.1387L29.4434-67.1387L44.873-26.709L13.8672-26.709Z"/>
  </g>
  <line id="Baseline-S" style="fill:none;stroke:#27AAE1;opacity:1;stroke-width:0.5;" x1="263" x2="3036" y1="696" y2="696"/>
  <line id="Capline-S" style="fill:none;stroke:#27AAE1;opacity:1;stroke-width:0.5;" x1="263" x2="3036" y1="625.541" y2="625.541"/>
  <g id="H-reference" style="fill:#27AAE1;stroke:none;" transform="matrix(1 0 0 1 339 1126)">
   <path d="M0.976562 0L3.66211 0L12.9883-24.4629L45.752-24.4629L55.127 0L57.7637 0L30.6152-70.459L28.125-70.459ZM29.3457-67.1387L29.4434-67.1387L44.873-26.709L13.8672-26.709Z"/>
  </g>
  <line id="Baseline-M" style="fill:none;stroke:#27AAE1;opacity:1;stroke-width:0.5;" x1="263" x2="3036" y1="1126" y2="1126"/>
  <line id="Capline-M" style="fill:none;stroke:#27AAE1;opacity:1;stroke-width:0.5;" x1="263" x2="3036" y1="1055.54" y2="1055.54"/>
  <g id="H-reference" style="fill:#27AAE1;stroke:none;" transform="matrix(1 0 0 1 339 1556)">
   <path d="M0.976562 0L3.66211 0L12.9883-24.4629L45.752-24.4629L55.127 0L57.7637 0L30.6152-70.459L28.125-70.459ZM29.3457-67.1387L29.4434-67.1387L44.873-26.709L13.8672-26.709Z"/>
  </g>
  <line id="Baseline-L" style="fill:none;stroke:#27AAE1;opacity:1;stroke-width:0.5;" x1="263" x2="3036" y1="1556" y2="1556"/>
  <line id="Capline-L" style="fill:none;stroke:#27AAE1;opacity:1;stroke-width:0.5;" x1="263" x2="3036" y1="1485.54" y2="1485.54"/>
  <line id="left-margin" style="fill:none;stroke:#00AEEF;stroke-width:0.5;opacity:1.0;" x1="1384.46" x2="1384.46" y1="1030.79" y2="1150.12"/>
  <line id="right-margin" style="fill:none;stroke:#00AEEF;stroke-width:0.5;opacity:1.0;" x1="1515.23" x2="1515.23" y1="1030.79" y2="1150.12"/>
 </g>
 <g id="Symbols">
  <g id="Black-L" transform="matrix(1 0 0 1 2844.63 1556)">
   <path d="M20.9473-18.3594L71.875 32.5195C82.666 43.3594 94.873 43.3594 105.664 32.6172L156.641-18.4082C167.432-29.1992 167.383-41.3574 156.592-52.1973L105.713-103.076C94.873-113.867 82.666-113.916 71.9238-103.125L20.8984-52.1484C10.1074-41.3574 10.1562-29.1504 20.9473-18.3594ZM59.7168-22.0215L59.7168-35.4492C59.7168-45.7031 65.4297-51.416 75.9277-51.416L94.3848-51.416L94.3848-59.5703C94.3848-64.5996 99.2676-66.4551 103.564-62.9395L121.777-48.3398C125.488-45.2637 125.635-40.918 121.777-37.793L103.564-23.2422C99.2676-19.6777 94.3848-21.6797 94.3848-26.6602L94.3848-34.1797L81.0547-34.1797C78.5156-34.1797 76.9531-32.666 76.9531-29.7363L76.9531-22.0215C76.9531-16.6016 73.6328-12.7441 68.2617-12.6953C63.0371-12.6953 59.7168-16.6016 59.7168-22.0215Z"/>
  </g>
  <g id="Heavy-L" transform="matrix(1 0 0 1 2549.16 1556)">
   <path d="M20.6543-19.1895L71.4355 31.5918C81.8359 41.9922 93.2617 41.9922 103.564 31.6895L154.492-19.2383C164.795-29.541 164.795-41.0156 154.395-51.3672L103.613-102.148C93.2617-112.5 81.8359-112.549 71.4844-102.197L20.5566-51.3184C10.2539-40.9668 10.3027-29.541 20.6543-19.1895ZM58.8379-20.5566L58.8379-35.0586C58.8379-45.7031 64.5508-51.416 75.3906-51.416L93.8965-51.416L93.8965-59.7168C93.8965-64.502 98.584-66.2598 102.588-63.0371L120.02-49.0723C123.682-46.0938 123.779-41.9434 120.02-38.916L102.588-25C98.584-21.7773 93.8965-23.6816 93.8965-28.3691L93.8965-36.1816L79.3457-36.1816C75.9766-36.1816 74.0723-34.3262 74.0723-30.5664L74.0723-20.5566C74.0723-15.625 71.1426-12.2559 66.4062-12.207C61.7676-12.207 58.8379-15.625 58.8379-20.5566Z"/>
  </g>
  <g id="Bold-L" transform="matrix(1 0 0 1 2253.84 1556)">
   <path d="M20.3125-20.1172L70.9961 30.5664C80.8594 40.4297 91.4551 40.4785 101.27 30.6641L152.051-20.166C161.865-29.9805 161.865-40.5762 152.002-50.4395L101.318-101.074C91.4551-110.986 80.9082-111.035 71.0449-101.172L20.2148-50.3906C10.3516-40.5273 10.4492-29.9805 20.3125-20.1172ZM57.8613-18.8477L57.8613-34.5703C57.8613-45.752 63.5254-51.4648 74.8047-51.4648L93.4082-51.4648L93.4082-59.8633C93.4082-64.3555 97.8516-66.0156 101.465-63.0859L118.066-49.9512C121.68-47.0215 121.729-43.1152 118.066-40.1855L101.465-27.002C97.8516-24.0723 93.4082-25.8789 93.4082-30.2734L93.4082-38.3789L77.4414-38.3789C73.1445-38.3789 70.8984-36.2305 70.8984-31.543L70.8984-18.8477C70.8984-14.5508 68.4082-11.7188 64.3555-11.7188C60.3027-11.6699 57.8613-14.5508 57.8613-18.8477Z"/>
  </g>
  <g id="Semibold-L" transform="matrix(1 0 0 1 1958.09 1556)">
   <path d="M20.0684-20.752L70.6543 29.8828C80.1758 39.4043 90.1855 39.4531 99.6582 29.9805L150.391-20.8008C159.863-30.2734 159.863-40.2832 150.342-49.8047L99.7559-100.391C90.1855-109.912 80.2246-109.961 70.752-100.488L19.9707-49.707C10.4492-40.2344 10.5469-30.2734 20.0684-20.752ZM57.1777-17.6758L57.1777-34.2773C57.1777-45.8008 62.8418-51.4648 74.4141-51.4648L93.0664-51.4648L93.0664-59.9609C93.0664-64.2578 97.3145-65.8691 100.732-63.1348L116.699-50.5371C120.264-47.6562 120.312-43.8965 116.699-41.0156L100.732-28.3691C97.3145-25.6836 93.0664-27.3926 93.0664-31.5918L93.0664-39.9414L76.1719-39.8926C71.1426-39.8926 68.7012-37.5 68.7012-32.1777L68.7012-17.6758C68.7012-13.8184 66.5527-11.377 62.9395-11.3281C59.3262-11.2793 57.1777-13.8184 57.1777-17.6758Z"/>
  </g>
  <g id="Medium-L" transform="matrix(1 0 0 1 1662.11 1556)">
   <path d="M19.873-21.1914L70.4102 29.2969C79.6875 38.5742 89.2578 38.623 98.4375 29.4434L149.17-21.2891C158.35-30.4688 158.35-40.0391 149.072-49.3164L98.5352-99.8535C89.2578-109.131 79.7363-109.18 70.5078-99.9512L19.7754-49.2188C10.5469-39.9902 10.5957-30.4688 19.873-21.1914ZM56.6406-16.7969L56.6406-34.0332C56.6406-45.8008 62.3535-51.5137 74.1211-51.5137L92.7734-51.5137L92.7734-60.0586C92.7734-64.1602 96.9238-65.7715 100.146-63.1836L115.674-50.9766C119.238-48.1445 119.238-44.5312 115.674-41.6504L100.146-29.4434C96.9238-26.9043 92.7734-28.5156 92.7734-32.6172L92.7734-41.1133L75.1465-41.0645C69.6777-41.0645 67.041-38.4766 67.041-32.666L67.041-16.7969C67.041-13.2812 65.0879-11.084 61.8652-11.0352C58.5449-10.9863 56.6406-13.2812 56.6406-16.7969Z"/>
  </g>
  <g id="Regular-L" transform="matrix(1 0 0 1 1366.35 1556)">
   <path d="M19.6777-21.8262L70.1172 28.6133C79.0527 37.5488 88.0371 37.5977 96.875 28.7598L147.51-21.9238C156.348-30.7617 156.348-39.7461 147.412-48.6816L96.9727-99.1211C88.0371-108.105 79.1016-108.154 70.2148-99.2188L19.4824-48.584C10.5957-39.6973 10.6934-30.7617 19.6777-21.8262ZM56.0059-15.6738L56.0059-33.6914C56.0059-45.8496 61.6699-51.5137 73.7305-51.5137L92.4316-51.5137L92.4316-60.1562C92.4316-64.0625 96.4355-65.625 99.3652-63.2324L114.307-51.6113C117.822-48.7793 117.822-45.3125 114.307-42.5293L99.3652-30.8105C96.4355-28.5156 92.4316-30.0293 92.4316-33.9355L92.4316-42.627L73.877-42.5781C67.7246-42.5781 64.8926-39.7461 64.8926-33.3008L64.8926-15.6738C64.8926-12.5488 63.2324-10.7422 60.4492-10.6934C57.5684-10.6445 56.0059-12.5488 56.0059-15.6738Z"/>
  </g>
  <g id="Light-L" transform="matrix(1 0 0 1 1070.76 1556)">
   <path d="M19.2383-22.5586L69.7266 27.9297C78.125 36.3281 86.7676 36.2793 95.0684 27.9785L145.557-22.6074C153.857-30.9082 154.004-39.5508 145.605-47.998L95.166-98.3887C86.6699-106.885 78.1738-106.836 69.7754-98.4375L19.1406-47.9004C10.7422-39.502 10.791-31.0059 19.2383-22.5586ZM55.7617-14.1113L55.7617-34.1309C55.7617-45.6055 60.9375-50.8789 72.2656-50.8789L91.9922-50.8789L91.9922-59.9121C91.9922-63.3301 95.5078-64.502 97.998-62.5488L112.305-51.2207C115.137-48.9258 115.137-45.9961 112.305-43.7012L97.998-32.373C95.5078-30.4199 91.9922-31.5918 91.9922-35.0098L91.9922-44.0918L72.3633-44.043C65.3809-44.043 62.4512-41.1621 62.4512-33.8379L62.4512-14.1113C62.4512-11.7676 61.2305-10.3516 59.082-10.3027C56.9336-10.3027 55.7617-11.7676 55.7617-14.1113Z"/>
  </g>
  <g id="Thin-L" transform="matrix(1 0 0 1 775.563 1556)">
   <path d="M18.6523-23.5352L69.1895 27.002C76.9043 34.7168 85.0586 34.5703 92.6758 27.002L143.018-23.5352C150.635-31.1035 150.928-39.2578 143.164-47.0215L92.7246-97.4609C84.9121-105.273 76.9043-105.127 69.1895-97.4121L18.6523-47.0215C10.9375-39.2578 10.9375-31.25 18.6523-23.5352ZM55.4199-12.0117L55.4199-34.668C55.4199-45.3125 59.9609-50 70.2637-50L91.4551-50L91.4551-59.5703C91.4551-62.4023 94.2871-63.0859 96.1426-61.5723L109.668-50.6836C111.621-49.1211 111.621-46.875 109.668-45.3125L96.1426-34.4238C94.2871-32.9102 91.4551-33.5938 91.4551-36.4258L91.4551-46.0938L70.3613-45.9961C62.2559-45.9961 59.2285-42.9688 59.2285-34.5703L59.2285-12.0117C59.2285-10.7422 58.5449-9.81445 57.3242-9.81445C56.1035-9.81445 55.4199-10.7422 55.4199-12.0117Z"/>
  </g>
  <g id="Ultralight-L" transform="matrix(1 0 0 1 479.633 1556)">
   <path d="M18.3594-24.0234L68.8965 26.5137C76.2695 33.8867 84.2285 33.6914 91.4551 26.4648L141.748-23.9746C148.975-31.2012 149.316-39.1602 141.943-46.5332L91.5039-96.9727C84.0332-104.443 76.2695-104.248 68.8965-96.875L18.4082-46.5332C10.9863-39.1602 10.9863-31.3965 18.3594-24.0234ZM55.2734-10.9375L55.2734-34.9121C55.2734-45.166 59.4238-49.5117 69.2383-49.5117L91.1621-49.5117L91.1621-59.375C91.1621-61.9141 93.6523-62.3535 95.166-61.084L108.35-50.4395C109.814-49.2188 109.814-47.3145 108.35-46.0938L95.166-35.4492C93.6523-34.1797 91.1621-34.668 91.1621-37.1582L91.1621-47.1191L69.3359-47.0215C60.6934-47.0215 57.6172-43.9453 57.6172-34.9609L57.6172-10.9375C57.6172-10.2539 57.1777-9.57031 56.4453-9.57031C55.7129-9.57031 55.2734-10.2539 55.2734-10.9375Z"/>
  </g>
  <g id="Black-M" transform="matrix(1 0 0 1 2863.5 1126)">
   <path d="M16.4551-21.4355L56.0547 18.1641C64.7461 26.8555 75.0488 26.8555 83.7402 18.1641L123.291-21.4355C131.982-30.127 132.031-40.3809 123.34-49.0723L83.7402-88.6719C75.0488-97.3633 64.7461-97.3633 56.0547-88.6719L16.5039-49.1211C7.8125-40.4297 7.76367-30.127 16.4551-21.4355ZM47.3633-26.2207L47.3633-36.1816C47.3633-43.1641 51.5137-47.3633 58.7402-47.3633L73.5352-47.3633L73.5352-53.7598C73.5352-57.8125 77.3438-59.082 80.8594-56.2012L95.7031-44.1406C98.291-41.9922 98.3887-38.623 95.7031-36.377L80.8594-24.3652C77.3438-21.3867 73.5352-22.9004 73.5352-26.8066L73.5352-32.5684L64.3066-32.5684C63.0371-32.5684 62.207-31.6895 62.207-30.127L62.207-26.2207C62.207-21.6797 59.2773-18.2129 54.7363-18.2129C50.2441-18.2129 47.3633-21.6797 47.3633-26.2207Z"/>
  </g>
  <g id="Heavy-M" transform="matrix(1 0 0 1 2567.87 1126)">
   <path d="M16.2598-22.1191L55.7129 17.334C64.0625 25.6836 73.584 25.6836 81.9336 17.3828L121.436-22.168C129.785-30.4688 129.785-40.0391 121.436-48.3887L81.9336-87.8418C73.6328-96.1914 64.0625-96.1914 55.7129-87.8906L16.2109-48.3398C7.86133-40.0391 7.91016-30.4688 16.2598-22.1191ZM46.4355-24.9512L46.4355-35.6445C46.4355-43.2617 50.7324-47.6074 58.5449-47.6074L73.1445-47.6074L73.1445-53.9551C73.1445-57.8613 76.8555-59.1797 80.127-56.4941L94.2871-45.0684C96.9727-42.8223 97.0703-39.5508 94.2871-37.2559L80.127-25.8789C76.8555-23.1934 73.1445-24.6582 73.1445-28.418L73.1445-34.3262L62.8418-34.3262C60.8398-34.3262 59.7168-33.2031 59.7168-30.9082L59.7168-24.9512C59.7168-20.8496 57.1289-17.8223 53.0273-17.7734C49.0234-17.7734 46.4355-20.8496 46.4355-24.9512Z"/>
  </g>
  <g id="Bold-M" transform="matrix(1 0 0 1 2272.35 1126)">
   <path d="M15.9668-22.9492L55.3223 16.4062C63.2812 24.3652 72.0215 24.4141 79.9316 16.4551L119.385-22.998C127.295-30.9082 127.246-39.6484 119.287-47.6074L79.9805-86.9141C72.0215-94.873 63.2812-94.9219 55.3711-86.9629L15.918-47.5586C7.95898-39.5996 8.00781-30.9082 15.9668-22.9492ZM45.4102-23.584L45.4102-35.0098C45.4102-43.3594 49.8535-47.8027 58.3496-47.8027L72.7051-47.8027L72.7051-54.1992C72.7051-57.9102 76.2695-59.2285 79.2969-56.7871L92.6758-46.1426C95.5566-43.7988 95.6055-40.625 92.6758-38.2812L79.2969-27.6367C76.2695-25.1465 72.7051-26.6113 72.7051-30.2246L72.7051-36.3281L61.1816-36.3281C58.3984-36.3281 56.8848-34.8145 56.8848-31.7871L56.8848-23.584C56.8848-19.873 54.6875-17.334 51.123-17.334C47.6074-17.2852 45.4102-19.873 45.4102-23.584Z"/>
  </g>
  <g id="Semibold-M" transform="matrix(1 0 0 1 1976.45 1126)">
   <path d="M15.8203-23.4863L55.0293 15.7715C62.7441 23.4375 70.8984 23.4863 78.5156 15.8691L117.92-23.5352C125.586-31.2012 125.537-39.3555 117.871-47.0215L78.6133-86.2793C70.8984-93.9941 62.793-94.043 55.127-86.377L15.7227-46.9727C8.05664-39.3066 8.10547-31.1523 15.8203-23.4863ZM44.7266-22.6074L44.7266-34.5703C44.7266-43.457 49.2188-47.9492 58.2031-47.9492L72.3633-47.9492L72.3633-54.3945C72.3633-57.9102 75.8789-59.2773 78.7598-56.9824L91.6016-46.875C94.5312-44.4824 94.5801-41.3574 91.6016-38.9648L78.7598-28.8086C75.8789-26.5137 72.3633-27.9785 72.3633-31.4453L72.3633-37.6953L60.0586-37.6953C56.7383-37.6953 54.9805-35.9863 54.9805-32.373L54.9805-22.6074C54.9805-19.2383 53.0273-17.041 49.8047-16.9922C46.6309-16.9434 44.7266-19.2383 44.7266-22.6074Z"/>
  </g>
  <g id="Medium-M" transform="matrix(1 0 0 1 1680.37 1126)">
   <path d="M15.6738-23.9258L54.834 15.2832C62.3535 22.7539 70.0684 22.8027 77.4902 15.3809L116.846-23.9746C124.268-31.3965 124.219-39.1113 116.748-46.6309L77.5879-85.791C70.0684-93.3105 62.3535-93.3594 54.9316-85.8887L15.5273-46.5332C8.10547-39.1113 8.1543-31.3965 15.6738-23.9258ZM44.1895-21.9238L44.1895-34.2285C44.1895-43.5059 48.7793-48.0957 58.1055-48.0957L72.1191-48.0957L72.1191-54.541C72.1191-57.959 75.5859-59.3262 78.3203-57.1289L90.7715-47.4121C93.7988-44.9707 93.7988-41.9434 90.7715-39.502L78.3203-29.7363C75.5859-27.5879 72.1191-29.0039 72.1191-32.373L72.1191-38.7207L59.1797-38.7207C55.4688-38.7207 53.5156-36.8164 53.5156-32.8125L53.5156-21.9238C53.5156-18.7012 51.7578-16.7969 48.8281-16.748C45.8984-16.6992 44.1895-18.7012 44.1895-21.9238Z"/>
  </g>
  <g id="Regular-M" transform="matrix(1 0 0 1 1384.46 1126)">
   <path d="M15.4785-24.4629L54.5898 14.6484C61.8164 21.875 68.9453 21.9238 76.123 14.7949L115.43-24.5605C122.559-31.6895 122.51-38.8672 115.283-46.0938L76.2207-85.1562C68.9941-92.3828 61.8652-92.4805 54.6875-85.3027L15.332-45.9961C8.1543-38.8184 8.25195-31.6895 15.4785-24.4629ZM43.5059-20.9473L43.5059-33.7891C43.5059-43.5547 48.1445-48.2422 57.959-48.2422L71.8262-48.2422L71.8262-54.6875C71.8262-57.959 75.1953-59.375 77.7832-57.373L89.6973-48.1445C92.8223-45.6543 92.8223-42.6758 89.6973-40.1855L77.7832-30.9082C75.1953-28.9062 71.8262-30.3223 71.8262-33.5938L71.8262-40.0879L58.0566-40.0879C53.7598-40.0879 51.6113-37.9395 51.6113-33.3984L51.6113-20.9473C51.6113-18.0664 50.0977-16.4551 47.5586-16.4062C44.9219-16.3574 43.5059-18.0664 43.5059-20.9473Z"/>
  </g>
  <g id="Light-M" transform="matrix(1 0 0 1 1088.78 1126)">
   <path d="M15.0879-25.0977L54.1992 14.0137C60.9863 20.8008 67.8223 20.8008 74.4629 14.1113L113.672-25.1465C120.361-31.8359 120.41-38.6719 113.672-45.4102L74.5605-84.5215C67.7734-91.3086 60.9863-91.3086 54.2969-84.5703L14.9902-45.3613C8.30078-38.623 8.34961-31.8359 15.0879-25.0977ZM43.2617-19.5312L43.2617-34.1797C43.2617-43.3594 47.5098-47.6562 56.6406-47.6562L71.4844-47.6562L71.4844-54.4922C71.4844-57.3242 74.4141-58.3984 76.5137-56.6895L87.8906-47.8027C90.4297-45.8008 90.4297-43.2617 87.8906-41.2598L76.5137-32.3242C74.4141-30.6152 71.4844-31.6895 71.4844-34.5703L71.4844-41.4551L56.7383-41.4062C51.709-41.4062 49.4629-39.209 49.4629-33.9355L49.4629-19.5312C49.4629-17.3828 48.291-16.1133 46.3867-16.0645C44.3848-16.0645 43.2617-17.3828 43.2617-19.5312Z"/>
  </g>
  <g id="Thin-M" transform="matrix(1 0 0 1 793.434 1126)">
   <path d="M14.5996-25.9277L53.7109 13.1836C59.8633 19.3359 66.3086 19.2383 72.3145 13.2324L111.426-25.9766C117.432-31.9824 117.627-38.4277 111.475-44.5801L72.4121-83.6426C66.2109-89.8438 59.8633-89.7461 53.7598-83.6426L14.5508-44.5312C8.44727-38.4277 8.44727-32.0801 14.5996-25.9277ZM43.0176-17.6758L43.0176-34.668C43.0176-43.1152 46.6797-46.8262 54.8828-46.8262L70.9961-46.8262L70.9961-54.1504C70.9961-56.4941 73.291-57.1289 74.9023-55.8594L85.5469-47.3145C87.2559-45.9473 87.2559-44.043 85.5469-42.6758L74.9023-34.1309C73.291-32.9102 70.9961-33.5449 70.9961-35.8398L70.9961-43.2129L54.9316-43.1641C48.9258-43.1641 46.582-40.8203 46.582-34.5703L46.582-17.6758C46.582-16.5039 45.9473-15.6738 44.8242-15.625C43.6523-15.625 43.0176-16.5039 43.0176-17.6758Z"/>
  </g>
  <g id="Ultralight-M" transform="matrix(1 0 0 1 497.406 1126)">
   <path d="M14.3555-26.3672L53.4668 12.7441C59.3262 18.6035 65.5273 18.457 71.2402 12.7441L110.254-26.3672C115.967-32.0801 116.211-38.2812 110.352-44.1406L71.2891-83.2031C65.3809-89.1113 59.3262-88.9648 53.4668-83.1543L14.3555-44.1406C8.49609-38.2812 8.49609-32.2266 14.3555-26.3672ZM42.8711-16.748L42.8711-34.9121C42.8711-42.9688 46.2402-46.4355 53.9551-46.4355L70.752-46.4355L70.752-54.0039C70.752-56.0547 72.7539-56.4453 74.0723-55.4199L84.375-47.0703C85.6445-46.0449 85.6445-44.4336 84.375-43.4082L74.0723-35.1074C72.7539-34.0332 70.752-34.4727 70.752-36.4746L70.752-44.1406L54.0527-44.043C47.5098-44.043 45.166-41.6992 45.166-34.9121L45.166-16.748C45.166-16.0156 44.7266-15.4297 43.9941-15.4297C43.3105-15.4297 42.8711-16.0156 42.8711-16.748Z"/>
  </g>
  <g id="Black-S" transform="matrix(1 0 0 1 2878.69 696)">
   <path d="M12.8906-24.4629L43.8965 6.54297C50.6836 13.3301 58.6914 13.3301 65.4785 6.54297L96.4844-24.4629C103.271-31.25 103.271-39.2578 96.4844-46.0449L65.4785-77.0508C58.6914-83.8379 50.6836-83.8379 43.8965-77.0508L12.8906-46.0449C6.10352-39.2578 6.10352-31.25 12.8906-24.4629ZM37.0605-28.0762L37.0605-35.9375C37.0605-41.4551 40.332-44.7754 46.0449-44.7754L57.6172-44.7754L57.6172-49.7559C57.6172-52.9297 60.5957-53.9551 63.3301-51.709L74.9023-42.2852C76.9531-40.5762 77.0508-37.9395 74.9023-36.1816L63.3301-26.8066C60.5957-24.5117 57.6172-25.6836 57.6172-28.7598L57.6172-33.252L50.293-33.252C49.2676-33.252 48.584-32.5684 48.584-31.2988L48.584-28.0762C48.584-24.5605 46.3379-21.875 42.7734-21.875C39.3066-21.875 37.0605-24.5605 37.0605-28.0762Z"/>
  </g>
  <g id="Heavy-S" transform="matrix(1 0 0 1 2582.71 696)">
   <path d="M12.7441-24.9512L43.6523 5.95703C50.2441 12.5488 57.7148 12.5488 64.3066 6.00586L95.2637-24.9512C101.807-31.543 101.807-39.0137 95.2148-45.5566L64.3066-76.4648C57.7148-83.0566 50.2441-83.0566 43.7012-76.5137L12.7441-45.5566C6.15234-38.9648 6.20117-31.4941 12.7441-24.9512ZM36.377-27.2949L36.377-35.4492C36.377-41.5527 39.7949-45.0195 46.0449-45.0195L57.373-45.0195L57.373-49.9512C57.373-53.0273 60.3027-54.1016 62.9395-52.002L74.0234-43.0664C76.2207-41.2109 76.3184-38.623 74.0234-36.7676L62.9395-27.832C60.3027-25.6836 57.373-26.8555 57.373-29.8828L57.373-34.4727L49.3164-34.4727C47.8516-34.4727 46.9238-33.5449 46.9238-31.8359L46.9238-27.2949C46.9238-23.9746 44.873-21.582 41.6016-21.582C38.4277-21.582 36.377-23.9746 36.377-27.2949Z"/>
  </g>
  <g id="Bold-S" transform="matrix(1 0 0 1 2286.78 696)">
   <path d="M12.5977-25.4883L43.4082 5.32227C49.7559 11.6699 56.6406 11.7188 62.9395 5.41992L93.8477-25.4883C100.146-31.8359 100.146-38.7207 93.7988-45.0195L62.9883-75.8301C56.6406-82.1777 49.7559-82.2266 43.457-75.9277L12.5-45.0195C6.20117-38.6719 6.25-31.7871 12.5977-25.4883ZM35.6445-26.416L35.6445-34.9609C35.6445-41.6504 39.209-45.2637 46.0449-45.2637L57.0312-45.2637L57.0312-50.1953C57.0312-53.125 59.9609-54.2969 62.4512-52.2949L73.0469-43.8965C75.4395-41.9434 75.4883-39.3555 73.0469-37.4023L62.4512-29.0039C59.9609-27.002 57.0312-28.2227 57.0312-31.1523L57.0312-35.8398L48.2422-35.8398C46.2402-35.8398 45.0684-34.668 45.0684-32.4219L45.0684-26.416C45.0684-23.3398 43.2617-21.2891 40.332-21.2402C37.4023-21.2402 35.6445-23.3398 35.6445-26.416Z"/>
  </g>
  <g id="Semibold-S" transform="matrix(1 0 0 1 1990.63 696)">
   <path d="M12.5-25.8301L43.2129 4.93164C49.4141 11.084 55.8594 11.1328 62.0117 5.0293L92.9199-25.8789C99.0234-32.0312 98.9746-38.5254 92.8223-44.6777L62.0605-75.4395C55.9082-81.5918 49.4141-81.6406 43.2617-75.4883L12.4023-44.6289C6.25-38.4766 6.29883-31.9824 12.5-25.8301ZM35.1074-25.7812L35.1074-34.5703C35.1074-41.748 38.8184-45.4102 46.0938-45.4102L56.8359-45.4102L56.8359-50.3418C56.8359-53.2227 59.7656-54.3945 62.1094-52.4902L72.3633-44.4824C74.8535-42.4316 74.9023-39.8438 72.3633-37.8418L62.1094-29.7852C59.7656-27.8809 56.8359-29.1016 56.8359-31.9824L56.8359-36.7676L47.4609-36.7676C45.1172-36.7676 43.75-35.4492 43.75-32.8613L43.75-25.7812C43.75-22.9004 42.1387-21.0938 39.4043-21.0449C36.7188-20.9961 35.1074-22.9004 35.1074-25.7812Z"/>
  </g>
  <g id="Medium-S" transform="matrix(1 0 0 1 1694.33 696)">
   <path d="M12.4023-26.123L43.0664 4.58984C49.1211 10.6445 55.2734 10.6934 61.2793 4.6875L92.1875-26.1719C98.1934-32.1777 98.0957-38.3301 92.041-44.3848L61.377-75.0977C55.3223-81.1523 49.1699-81.2012 43.1641-75.1953L12.2559-44.3359C6.25-38.3301 6.34766-32.1777 12.4023-26.123ZM34.7168-25.3418L34.7168-34.3262C34.7168-41.7969 38.4766-45.5566 46.0938-45.5566L56.6895-45.5566L56.6895-50.4395C56.6895-53.2715 59.5703-54.4922 61.8652-52.6855L71.8262-44.9219C74.4629-42.8223 74.4629-40.2344 71.8262-38.1836L61.8652-30.3711C59.5703-28.5645 56.6895-29.834 56.6895-32.666L56.6895-37.4512L46.9238-37.4512C44.2871-37.4512 42.7734-35.9863 42.7734-33.1543L42.7734-25.3418C42.7734-22.5586 41.2598-20.8984 38.7207-20.8496C36.1816-20.8496 34.7168-22.5586 34.7168-25.3418Z"/>
  </g>
  <g id="Regular-S" transform="matrix(1 0 0 1 1398.16 696)">
   <path d="M12.2559-26.4648L42.9199 4.15039C48.7793 10.0586 54.541 10.1074 60.4004 4.29688L91.2109-26.5625C97.0703-32.373 96.9727-38.1348 91.0645-44.043L60.4492-74.6582C54.5898-80.5664 48.8281-80.6152 42.9688-74.8047L12.1582-43.9453C6.29883-38.0859 6.39648-32.373 12.2559-26.4648ZM34.1797-24.7559L34.1797-33.9355C34.1797-41.8457 38.0859-45.7031 46.0938-45.7031L56.4941-45.7031L56.4941-50.5859C56.4941-53.3691 59.3262-54.6387 61.5723-52.8809L71.1426-45.5078C73.877-43.3105 73.877-40.7715 71.1426-38.5742L61.5723-31.1523C59.3262-29.4434 56.4941-30.7129 56.4941-33.4961L56.4941-38.3789L46.1914-38.3789C43.1641-38.3789 41.5039-36.7676 41.5039-33.5938L41.5039-24.7559C41.5039-22.1191 40.1367-20.7031 37.8418-20.6543C35.498-20.6055 34.1797-22.1191 34.1797-24.7559Z"/>
  </g>
  <g id="Light-S" transform="matrix(1 0 0 1 1102.35 696)">
   <path d="M11.9629-27.0508L42.5781 3.61328C48.0469 9.08203 53.5645 9.08203 58.9355 3.71094L89.6973-27.0996C95.1172-32.5195 95.1172-37.9883 89.6484-43.457L59.0332-74.0723C53.5645-79.5898 48.0957-79.5898 42.627-74.1699L11.8652-43.4082C6.39648-37.9395 6.49414-32.5195 11.9629-27.0508ZM33.9844-23.4863L33.9844-34.2773C33.9844-41.6992 37.5-45.166 44.873-45.166L56.1523-45.166L56.1523-50.3906C56.1523-52.7832 58.5938-53.7598 60.4492-52.2949L69.5801-45.2148C71.7773-43.457 71.7773-41.3086 69.5801-39.5508L60.4492-32.4219C58.5938-30.957 56.1523-31.9336 56.1523-34.3262L56.1523-39.5996L44.9707-39.5508C41.3086-39.5508 39.5996-37.8418 39.5996-34.0332L39.5996-23.4863C39.5996-21.5332 38.5742-20.4102 36.8164-20.3613C35.0098-20.3125 33.9844-21.5332 33.9844-23.4863Z"/>
  </g>
  <g id="Thin-S" transform="matrix(1 0 0 1 806.813 696)">
   <path d="M11.5234-27.7832L42.1875 2.88086C47.1191 7.8125 52.2461 7.76367 57.0801 2.88086L87.6953-27.832C92.5781-32.666 92.6758-37.793 87.7441-42.7246L57.1289-73.3398C52.1484-78.3203 47.1191-78.2715 42.1875-73.3398L11.4746-42.6758C6.5918-37.793 6.5918-32.7148 11.5234-27.7832ZM33.7402-21.8262L33.7402-34.668C33.7402-41.4551 36.7188-44.4824 43.3105-44.4824L55.7129-44.4824L55.7129-50.1465C55.7129-52.0508 57.666-52.6367 58.9844-51.5625L67.4805-44.7754C68.9453-43.6035 68.9453-41.9922 67.4805-40.8203L58.9844-34.0332C57.666-32.959 55.7129-33.5449 55.7129-35.4492L55.7129-41.1621L43.4082-41.1133C38.8672-41.1133 37.0605-39.3066 37.0605-34.5703L37.0605-21.8262C37.0605-20.7031 36.4258-19.9707 35.4004-19.9707C34.375-19.9707 33.7402-20.7031 33.7402-21.8262Z"/>
  </g>
  <g id="Ultralight-S" transform="matrix(1 0 0 1 510.712 696)">
   <path d="M11.3281-28.1738L41.9434 2.49023C46.6309 7.12891 51.5625 7.03125 56.1035 2.49023L86.6699-28.1738C91.2598-32.7637 91.4062-37.6953 86.7676-42.334L56.1523-72.9492C51.4648-77.6367 46.6309-77.5391 41.9922-72.9004L11.2793-42.334C6.64062-37.6465 6.64062-32.8125 11.3281-28.1738ZM33.6426-20.9961L33.6426-34.9121C33.6426-41.3574 36.3281-44.1406 42.5293-44.1406L55.4688-44.1406L55.4688-50C55.4688-51.6602 57.1289-52.0508 58.252-51.1719L66.4062-44.5801C67.5293-43.7012 67.5293-42.334 66.4062-41.4551L58.252-34.8633C57.1289-33.9844 55.4688-34.375 55.4688-36.0352L55.4688-41.9434L42.5781-41.8945C37.5977-41.8945 35.7422-40.0391 35.7422-34.9121L35.7422-20.9961C35.7422-20.3125 35.3516-19.7754 34.668-19.7754C34.0332-19.7754 33.6426-20.3125 33.6426-20.9961Z"/>
  </g>
 </g>
</svg>
